<svg width="38" height="37" viewBox="0 0 38 37" fill="none" xmlns="http://www.w3.org/2000/svg">
<g id="Union">
<path fill-rule="evenodd" clip-rule="evenodd" d="M25.2889 16.262C25.5795 14.7569 25.7316 13.2025 25.7316 11.6126V0.702423H1.34418V36C7.24978 36 12.6651 33.9009 16.8847 30.4081C21.0944 33.2126 27.8446 35.8784 36 34.3956C33.7538 33.4329 25.0898 27.6569 25.4107 16.105C25.3718 16.1585 25.3312 16.2109 25.2889 16.262Z" fill="#2E9DFB"/>
<path d="M25.2889 16.262L25.6744 16.5805L24.798 16.1672L25.2889 16.262ZM25.7316 0.702423V0.202423H26.2316V0.702423H25.7316ZM1.34418 0.702423H0.844185V0.202423H1.34418V0.702423ZM1.34418 36V36.5H0.844185V36H1.34418ZM16.8847 30.4081L16.5659 30.0229L16.8524 29.7857L17.1619 29.992L16.8847 30.4081ZM36 34.3956L36.197 33.936L37.7238 34.5904L36.0894 34.8875L36 34.3956ZM25.4107 16.105L25.0064 15.8109L25.9553 14.5061L25.9105 16.1189L25.4107 16.105ZM26.2316 11.6126C26.2316 13.2345 26.0764 14.8206 25.7799 16.3567L24.798 16.1672C25.0825 14.6932 25.2316 13.1705 25.2316 11.6126H26.2316ZM26.2316 0.702423V11.6126H25.2316V0.702423H26.2316ZM1.34418 0.202423H25.7316V1.20242H1.34418V0.202423ZM0.844185 36V0.702423H1.84418V36H0.844185ZM17.2035 30.7932C12.8976 34.3575 7.37042 36.5 1.34418 36.5V35.5C7.12914 35.5 12.4326 33.4442 16.5659 30.0229L17.2035 30.7932ZM36.0894 34.8875C27.7748 36.3993 20.8947 33.6803 16.6075 30.8242L17.1619 29.992C21.2942 32.7448 27.9144 35.3575 35.9106 33.9036L36.0894 34.8875ZM25.9105 16.1189C25.7539 21.7569 27.787 25.9763 30.1331 28.9089C32.4891 31.8538 35.1504 33.4875 36.197 33.936L35.803 34.8551C34.6033 34.341 31.8097 32.6053 29.3523 29.5336C26.8851 26.4496 24.7466 22.0051 24.9109 16.0911L25.9105 16.1189ZM24.9035 15.9435C24.9393 15.9002 24.9736 15.856 25.0064 15.8109L25.8151 16.3991C25.77 16.4611 25.7231 16.5215 25.6744 16.5805L24.9035 15.9435Z" fill="#2E9DFB"/>
</g>
</svg>
